<svg width="51" height="51" viewBox="0 0 51 51" fill="none" xmlns="http://www.w3.org/2000/svg">
<rect x="0.5" y="0.5" width="50" height="50" rx="25" fill="#E6446E"/>
<mask id="mask0_1_26" style="mask-type:luminance" maskUnits="userSpaceOnUse" x="25" y="16" width="9" height="23">
<path d="M25.7401 20.9187V37.4055C25.7394 37.5336 25.7751 37.6591 25.8426 37.7659C25.9101 37.8728 26.0063 37.9561 26.1192 38.0055C26.232 38.0548 26.3562 38.0679 26.4761 38.043C26.596 38.0181 26.7062 37.9564 26.7926 37.8657L33.0376 31.4515C33.2815 31.2054 33.4402 30.8811 33.4884 30.5298C33.5366 30.1786 33.4716 29.8205 33.3037 29.5123V29.5075L33.2372 29.3985L31.7531 26.9329L28.0151 20.7208C27.9946 20.6904 27.9764 20.6612 27.9582 20.629L27.9548 20.623C27.6951 20.1715 27.553 19.6565 27.5427 19.1294C27.5323 18.6022 27.6541 18.0815 27.8958 17.6192C28.1376 17.1569 28.4908 16.7691 28.9202 16.4948C29.3496 16.2204 29.8402 16.0689 30.343 16.0556C29.1191 16.0656 27.9486 16.5824 27.0866 17.4934C26.2246 18.4043 25.741 19.6355 25.7412 20.9187" fill="white"/>
</mask>
<g mask="url(#mask0_1_26)">
<path d="M27.6812 12.532L16.5649 32.7175L31.5629 41.7955L42.6792 21.61L27.6812 12.532Z" fill="url(#paint0_linear_1_26)"/>
</g>
<mask id="mask1_1_26" style="mask-type:luminance" maskUnits="userSpaceOnUse" x="27" y="16" width="16" height="11">
<path d="M30.4159 16.0556H30.342C29.8392 16.0689 29.3487 16.2204 28.9192 16.4948C28.4898 16.7691 28.1366 17.1569 27.8948 17.6192C27.6531 18.0815 27.5313 18.6022 27.5417 19.1294C27.552 19.6565 27.6941 20.1715 27.9538 20.623L27.9572 20.629L28.0141 20.7208L31.7533 26.9335H31.7567C31.6422 26.7348 31.5802 26.5077 31.5768 26.2756C31.5735 26.0435 31.6289 25.8145 31.7376 25.6123C31.8462 25.41 32.0042 25.2415 32.1952 25.1242C32.3863 25.0068 32.6037 24.9447 32.8251 24.9443H37.809C38.3697 24.9511 38.9261 24.8412 39.446 24.6209C39.9659 24.4007 40.4389 24.0745 40.8377 23.6612C41.2365 23.248 41.5531 22.7559 41.7691 22.2134C41.9852 21.671 42.0965 21.089 42.0965 20.5011C42.0965 19.9132 41.9852 19.3312 41.7691 18.7888C41.5531 18.2463 41.2365 17.7542 40.8377 17.341C40.4389 16.9277 39.9659 16.6015 39.446 16.3813C38.9261 16.161 38.3697 16.0511 37.809 16.0579L30.4159 16.0556Z" fill="white"/>
</mask>
<g mask="url(#mask1_1_26)">
<path d="M42.0478 16.0555H27.5437V26.9335H42.0478V16.0555Z" fill="url(#paint1_linear_1_26)"/>
</g>
<mask id="mask2_1_26" style="mask-type:luminance" maskUnits="userSpaceOnUse" x="16" y="16" width="9" height="23">
<path d="M22.733 19.0671C22.7337 19.6157 22.5907 20.1539 22.3196 20.623L22.3167 20.629C22.2991 20.6594 22.2803 20.6886 22.2599 20.7208L18.5218 26.9329L17.04 29.3955L16.9741 29.5046V29.5093C16.8058 29.8173 16.7406 30.1755 16.7887 30.5268C16.8368 30.8781 16.9955 31.2025 17.2396 31.4485L23.4824 37.8657C23.5687 37.9561 23.6786 38.0177 23.7982 38.0426C23.9179 38.0675 24.0419 38.0547 24.1546 38.0058C24.2673 37.9569 24.3636 37.874 24.4314 37.7677C24.4992 37.6614 24.5354 37.5364 24.5355 37.4085V20.9187C24.5356 19.6355 24.052 18.4043 23.1901 17.4934C22.3281 16.5824 21.1576 16.0656 19.9337 16.0556C20.6827 16.0759 21.3945 16.4021 21.9174 16.9647C22.4403 17.5272 22.7329 18.2817 22.733 19.0671Z" fill="white"/>
</mask>
<g mask="url(#mask2_1_26)">
<path d="M22.5945 12.5313L7.59653 21.6093L18.7129 41.7947L33.7109 32.7168L22.5945 12.5313Z" fill="url(#paint2_linear_1_26)"/>
</g>
<mask id="mask3_1_26" style="mask-type:luminance" maskUnits="userSpaceOnUse" x="8" y="16" width="15" height="11">
<path d="M19.859 16.0556H12.4671C11.3516 16.0691 10.2861 16.5432 9.50187 17.375C8.71761 18.2067 8.27777 19.3292 8.27777 20.4987C8.27777 21.6683 8.71761 22.7907 9.50187 23.6225C10.2861 24.4542 11.3516 24.9283 12.4671 24.9419H17.451C17.6724 24.9423 17.8898 25.0044 18.0809 25.1218C18.2719 25.2391 18.4298 25.4076 18.5385 25.6099C18.6471 25.8122 18.7026 26.0411 18.6993 26.2732C18.6959 26.5053 18.6338 26.7324 18.5194 26.9311H18.5222L22.2603 20.7214L22.3172 20.6296L22.32 20.6236C22.5798 20.1721 22.7221 19.6571 22.7325 19.1299C22.743 18.6027 22.6212 18.0819 22.3795 17.6195C22.1377 17.1571 21.7844 16.7694 21.3549 16.495C20.9253 16.2207 20.4346 16.0693 19.9318 16.0562H19.8573L19.859 16.0556Z" fill="white"/>
</mask>
<g mask="url(#mask3_1_26)">
<path d="M22.7326 16.0553H8.22849V26.9332H22.7326V16.0553Z" fill="url(#paint3_linear_1_26)"/>
</g>
<defs>
<linearGradient id="paint0_linear_1_26" x1="37.1698" y1="30.8703" x2="23.1733" y2="23.1623" gradientUnits="userSpaceOnUse">
<stop stop-color="white"/>
<stop offset="0.53" stop-color="#F7E2E8"/>
<stop offset="1" stop-color="#EFB2C2"/>
</linearGradient>
<linearGradient id="paint1_linear_1_26" x1="42.0662" y1="21.6731" x2="27.5786" y2="21.6731" gradientUnits="userSpaceOnUse">
<stop stop-color="#EC9AAF"/>
<stop offset="1" stop-color="white"/>
</linearGradient>
<linearGradient id="paint2_linear_1_26" x1="26.4644" y1="36.5515" x2="15.5888" y2="18.5836" gradientUnits="userSpaceOnUse">
<stop stop-color="white"/>
<stop offset="0.53" stop-color="#F7E2E8"/>
<stop offset="1" stop-color="#EFB2C2"/>
</linearGradient>
<linearGradient id="paint3_linear_1_26" x1="22.751" y1="21.6729" x2="8.26344" y2="21.6729" gradientUnits="userSpaceOnUse">
<stop stop-color="white"/>
<stop offset="1" stop-color="#EC9AAF"/>
</linearGradient>
</defs>
</svg>
