<svg width="24" height="24" viewBox="0 0 24 24" fill="none" xmlns="http://www.w3.org/2000/svg">
<path d="M21 11.5C21 16.75 16.75 21 11.5 21C6.25 21 2 16.75 2 11.5C2 6.25 6.25 2 11.5 2" stroke="#583E45" stroke-width="1.5" stroke-linecap="round" stroke-linejoin="round"/>
<path d="M22 22L20 20" stroke="#583E45" stroke-width="1.5" stroke-linecap="round" stroke-linejoin="round"/>
<path d="M14.5 6.12999C14.15 5.02999 14.56 3.65999 15.72 3.28999C16.33 3.08999 17.08 3.25999 17.51 3.84999C17.91 3.23999 18.69 3.09999 19.29 3.28999C20.45 3.65999 20.86 5.02999 20.51 6.12999C19.96 7.87999 18.04 8.78999 17.51 8.78999C16.97 8.78999 15.07 7.89999 14.5 6.12999Z" stroke="#583E45" stroke-width="1.5" stroke-linecap="round" stroke-linejoin="round"/>
</svg>
